<svg xmlns="http://www.w3.org/2000/svg" xmlns:xlink="http://www.w3.org/1999/xlink" viewBox="0,0,256,256" width="64px" height="64px" fill-rule="nonzero"><g fill="none" fill-rule="nonzero" stroke="none" stroke-width="none" stroke-linecap="none" stroke-linejoin="none" stroke-miterlimit="10" stroke-dasharray="" stroke-dashoffset="0" font-family="none" font-weight="none" font-size="none" text-anchor="none" style="mix-blend-mode: normal"><g transform="scale(4,4)"><path d="M28.667,7.723l-16,7.138c-2.844,1.303 -4.667,4.145 -4.667,7.273v18.828c0,3.079 1.767,5.885 4.545,7.215l16,7.042c2.185,1.046 4.726,1.046 6.911,0l16,-7.042c2.777,-1.331 4.544,-4.137 4.544,-7.216v-18.827c0,-3.128 -1.823,-5.969 -4.667,-7.273l-16,-7.138c-2.116,-0.97 -4.55,-0.97 -6.666,0z" fill="#ff416c" stroke="none" stroke-width="1" stroke-linecap="butt" stroke-linejoin="miter"></path><path d="M54.308,17.208c-0.772,-0.985 -1.791,-1.804 -2.975,-2.347l-16,-7.138c-2.116,-0.97 -4.55,-0.97 -6.667,0l-16,7.138c-1.455,0.667 -2.636,1.739 -3.45,3.043l20.72,8.449c1.26,0.514 2.676,0.492 3.919,-0.061z" fill="#ff4b2b" stroke="none" stroke-width="1" stroke-linecap="butt" stroke-linejoin="miter"></path><path d="M34.544,26.002c0,0 -2.88,0.857 -2.877,4.46c0,4.097 0,19.897 0,22.828c0,1.878 0.658,2.5 1.346,2.643c0.838,-0.107 1.663,-0.341 2.442,-0.714l16,-7.042c2.778,-1.331 4.545,-4.137 4.545,-7.216v-18.827c0,-1.727 -0.53,-3.427 -1.692,-4.926c-0.528,0.304 -19.764,8.794 -19.764,8.794z" fill-opacity="0.43137" fill="#000000" stroke="none" stroke-width="1" stroke-linecap="butt" stroke-linejoin="miter" opacity="0.15"></path><path d="M33.612,7.164c-1.652,-0.34 -3.385,-0.156 -4.946,0.559l-16,7.138c-2.843,1.303 -4.666,4.144 -4.666,7.273v18.828c0,1.738 0.578,3.377 1.568,4.724c1.988,-0.661 3.432,-2.515 3.432,-4.725v-18.827c0,-1.169 0.687,-2.24 1.704,-2.707l16,-7.138c2.04,-0.909 3.146,-3.018 2.908,-5.125z" fill="#ffffff" stroke="none" stroke-width="1" stroke-linecap="butt" stroke-linejoin="miter" opacity="0.3"></path><path d="M56,22.134c0,-1.739 -0.616,-3.56 -1.692,-4.926c-1.875,0.832 -3.308,2.716 -3.308,4.926v18.827c0,1.127 -0.646,2.172 -1.65,2.679l-10.482,4.606c-6.148,2.676 -6.182,5.44 -5.854,7.687c1.484,-0.208 2.413,-0.653 3.965,-1.396l14.477,-6.36c2.777,-1.331 4.544,-4.137 4.544,-7.216z" fill-opacity="0.43137" fill="#000000" stroke="none" stroke-width="1" stroke-linecap="butt" stroke-linejoin="miter" opacity="0.15"></path><ellipse cx="32" cy="61" rx="19" ry="3" fill-opacity="0.43137" fill="#000000" stroke="none" stroke-width="1" stroke-linecap="butt" stroke-linejoin="miter" opacity="0.3"></ellipse><path d="M41.569,10.505l-22.894,10.304c-0.703,0.332 -1.149,1.042 -1.145,1.82l0.128,27.802l6.264,2.757l-0.136,-27.986c-0.006,-0.774 0.435,-1.483 1.133,-1.819l22.464,-10.284z" fill="#ffa8a8" stroke="none" stroke-width="1" stroke-linecap="butt" stroke-linejoin="miter"></path><path d="M17.112,16.708l6,-2.697" fill="none" stroke="#ffffff" stroke-width="3" stroke-linecap="round" stroke-linejoin="round"></path></g></g></svg>